Coordinates
version=1
nRows=16
nColumns=36
inDegrees=yes

Units are S.I. units (second, meters, Newtons, ...)
If the header above contains a line with 'inDegrees', this indicates whether rotational values are in degrees (yes) or radians (no).

endheader
time	pelvis_tilt	pelvis_list	pelvis_rotation	pelvis_tx	pelvis_ty	pelvis_tz	hip_flexion_r	hip_adduction_r	hip_rotation_r	knee_angle_r	knee_angle_r_beta	ankle_angle_r	subtalar_angle_r	mtp_angle_r	hip_flexion_l	hip_adduction_l	hip_rotation_l	knee_angle_l	knee_angle_l_beta	ankle_angle_l	subtalar_angle_l	mtp_angle_l	lumbar_extension	lumbar_bending	lumbar_rotation	arm_flex_r	arm_add_r	arm_rot_r	elbow_flex_r	pro_sup_r	arm_flex_l	arm_add_l	arm_rot_l	elbow_flex_l	pro_sup_l
      2.23333330	    -33.69956140	     -7.91254095	      6.50053802	      1.06867993	      0.61073398	     -0.10141069	    104.18196425	    -16.47782739	      0.49400676	    101.12467866	      1.76495860	     40.45561300	      0.42125668	     -7.49999986	    107.53131230	    -18.08284870	      6.52619842	    101.26146345	      1.76734594	     40.27171480	      2.38142461	     -7.49999986	    -24.64234274	      1.94006058	     15.15582361	    104.61627853	    -19.55148899	     75.94834304	    128.35453867	     46.26519515	    104.75544235	      1.57045430	     77.15208232	    117.09804327	     65.93372617
      2.25000000	    -33.56683464	     -7.92610335	      6.56207967	      1.06900220	      0.62274082	     -0.10252019	    102.38544393	    -16.31453508	      0.10920859	     99.52648366	      1.73706483	     40.35257689	      0.20225262	     -7.49999986	    105.83078696	    -18.07250356	      6.13096413	     99.79109614	      1.74168319	     40.47582316	      2.41172310	     -7.49999986	    -24.40720441	      1.89667490	     15.21879890	    102.78913673	    -19.46852254	     76.68913893	    128.62277647	     46.33175158	    103.53222528	      1.64009058	     77.15084418	    117.26914226	     65.98754651
      2.26666670	    -33.24758337	     -7.93421102	      6.52297706	      1.07452542	      0.63062805	     -0.10592826	    100.29317828	    -16.06551228	     -0.36251591	     97.76976083	      1.70640424	     40.30276885	      0.28901445	     -7.49999986	    103.81774980	    -18.16011814	      5.76470640	     98.22910822	      1.71442136	     40.74752861	      2.75074144	     -7.49999986	    -23.82765453	      2.02190394	     14.70039174	    101.33959888	    -18.97192375	     76.71583247	    130.20112297	     46.36050371	    101.93351488	      1.76453059	     76.71876556	    117.70340675	     66.06340629
      2.28333330	    -32.75679714	     -7.88136174	      6.60124173	      1.06906851	      0.63935869	     -0.10312906	     98.13881841	    -15.90045167	     -0.76599704	     95.99518953	      1.67543212	     40.20844688	      0.38879101	     -7.49999987	    101.71353457	    -18.16291932	      5.32743652	     96.62805923	      1.68647778	     40.92225589	      3.00116633	     -7.49999987	    -23.88205795	      2.16558889	     14.64472287	    100.79617906	    -19.36151109	     74.79502014	    130.71277915	     44.90683037	    101.08836437	      2.04620533	     73.49557698	    117.44985921	     77.91889252
      2.30000000	    -32.30227761	     -7.81855263	      6.56287128	      1.07532091	      0.64735053	     -0.10047031	     96.19063023	    -15.58895295	     -1.14752138	     94.36896803	      1.64704920	     40.08079010	      0.52199912	     -7.49999987	     99.75417295	    -18.33215940	      4.94938437	     95.10884811	      1.65996255	     40.97036856	      3.06603836	     -7.49999987	    -23.13430011	      1.92987709	     14.68969523	     99.42068330	    -18.30010733	     75.63298381	    130.88956557	     44.98187528	    100.37110139	      1.49749907	     73.54248568	    117.52575573	     77.87181851
      2.31666670	    -31.62243953	     -7.73789827	      6.50970818	      1.08839650	      0.67141767	     -0.10087875	     93.31903315	    -15.17115269	     -1.64263844	     92.12136829	      1.60782119	     40.12445289	      0.59860809	     -7.49999987	     96.93318070	    -18.55365305	      4.45046017	     93.00423017	      1.62323003	     41.24787112	      3.59821521	     -7.49999987	    -23.30494195	      2.14109764	     14.02326928	     96.81017597	    -17.28553288	     76.10752996	    129.27362590	     46.12738420	     97.32775646	     -0.14867740	     74.57662874	    117.09036532	     77.47934339
      2.33333330	    -31.30613113	     -7.64567069	      6.41114305	      1.08865466	      0.68358560	     -0.10075199	     90.88570954	    -14.75037976	     -2.01972101	     89.79252481	      1.56717520	     39.90102668	      0.58146613	     -7.49999987	     94.43734506	    -18.72434476	      3.87110280	     90.79659648	      1.58469956	     41.04302006	      3.82973163	     -7.49999987	    -22.80726276	      1.98005051	     13.94403686	     94.92273700	    -16.79013615	     76.92923738	    129.89098153	     46.33270690	     95.71043951	     -0.08322991	     74.90899889	    117.50111313	     77.57218639
      2.35000000	    -30.26947273	     -7.43022124	      6.31947291	      1.09517204	      0.69251520	     -0.09809488	     87.81858504	    -14.25257142	     -2.37369060	     87.61393068	      1.52915156	     39.90278757	      0.59241073	     -7.49999987	     91.19923944	    -19.09790696	      3.19083285	     88.66381441	      1.54747549	     41.12487541	      4.28751919	     -7.49999987	    -22.67932386	      1.78362533	     13.81230866	     93.36467581	    -15.70613941	     76.43403728	    129.82579511	     47.80850990	     93.79388381	      0.04557635	     73.72586504	    117.46638241	     76.64440933
      2.36666670	    -29.38830404	     -7.32205003	      6.16307129	      1.10105598	      0.70093025	     -0.09542420	     85.10214796	    -13.73756532	     -2.82786086	     85.63574872	      1.49462577	     39.90289370	      0.51192623	     -7.49999987	     88.40773526	    -19.55991294	      2.65640731	     86.77107649	      1.51444098	     40.97829183	      4.57210789	     -7.49999987	    -22.10510162	      1.56347328	     13.59946650	     92.45056765	    -14.55452854	     75.21679420	    130.08324773	     49.33369617	     92.92044784	      0.30252937	     72.40863327	    118.54430920	     75.92496972
      2.38333330	    -28.62490518	     -7.24082319	      6.09772656	      1.09635379	      0.71596885	     -0.09157407	     82.55962846	    -13.25431259	     -3.32239293	     83.57038824	      1.45857843	     39.76615896	      0.37077962	     -7.49999987	     85.84094895	    -20.01286401	      2.00704314	     84.72834726	      1.47878863	     40.61996250	      4.86436469	     -7.49999987	    -21.89683131	      1.42508077	     12.85124904	     91.45709851	    -13.83937645	     72.59958554	    128.24794184	     62.82129228	     92.79435639	      0.13567320	     71.93588040	    118.58478492	     85.92394503
      2.40000000	    -28.16060027	     -7.25003054	      5.90510154	      1.09708833	      0.72593438	     -0.09076886	     80.43499593	    -12.75031416	     -3.91666093	     81.50380260	      1.42250971	     39.50657628	      0.34026754	     -7.49999987	     83.75516867	    -20.54179651	      1.41166680	     82.75026799	      1.44426463	     40.02281374	      5.04322654	     -7.49999987	    -21.14885946	      1.24641954	     12.41327413	     90.82891921	    -13.11990767	     71.67608903	    127.62292249	     62.73405719	     92.57689428	      0.06418026	     71.90160614	    118.13381621	     85.88117000
      2.41666670	    -27.21746065	     -7.13889234	      5.84094406	      1.10425372	      0.74486836	     -0.08885797	     77.48610737	    -12.38448689	     -4.61696478	     79.04190594	      1.37954151	     39.20868070	      0.29305764	     -7.49999987	     80.73394412	    -21.00462900	      0.55877728	     80.32059450	      1.40185883	     39.43941661	      5.39998834	     -7.49999987	    -20.89972044	      1.00205483	     11.49890419	     88.94996992	    -12.23222606	     70.31382498	    127.12575178	     62.85886024	     91.47583641	     -0.15839690	     72.06520274	    119.26440350	     84.70266353
      2.43333330	    -26.75170351	     -7.08189396	      5.62214431	      1.10463478	      0.74925497	     -0.09423681	     75.45169300	    -12.00701717	     -5.13494043	     76.97995289	      1.34355364	     38.75542831	      0.41343143	     -7.49999987	     78.56043264	    -21.44921289	     -0.18281035	     78.31454036	      1.36684658	     38.64244808	      5.66086342	     -7.49999987	    -19.56708324	      0.98501747	     10.33207810	     87.78772514	    -11.69212081	     69.61212393	    128.60526792	     62.90797812	     90.50557429	      0.10393438	     71.90922814	    119.58015048	     84.72349507
      2.45000000	    -25.59666844	     -6.72462156	      5.49344201	      1.11235520	      0.77227575	     -0.09122116	     72.26536202	    -11.69604240	     -5.57839531	     74.29343174	      1.29666500	     38.32482123	      0.48103884	     -7.49999987	     74.96042513	    -21.72501285	     -1.40360068	     75.56986157	      1.31894290	     38.07529756	      5.96724220	     -7.49999987	    -19.38176484	      0.50025656	     10.37385609	     85.87662039	    -11.97590914	     68.36114973	    128.21311937	     63.03148818	     88.49027349	      0.37778827	     71.75454514	    118.54166372	     84.01656355
      2.46666670	    -24.76239590	     -6.46546122	      5.31265138	      1.11365981	      0.78526434	     -0.09076774	     69.41226182	    -11.34700627	     -6.03019458	     71.51383129	      1.24815182	     37.64261733	      0.61515703	     -7.49999987	     71.74441105	    -21.98425470	     -2.59686405	     72.79021318	      1.27042888	     37.13424635	      6.26049185	     -7.49999987	    -18.76543054	      0.18280130	     10.26235471	     84.82746798	    -12.35514995	     67.89995287	    128.66881551	     63.30481016	     87.62561928	      0.72490188	     70.74040527	    118.52692661	     84.22164146
      2.48333330	    -24.11482732	     -6.26557850	      5.06777720	      1.12619251	      0.80164504	     -0.09182656	     66.43804589	    -10.94117973	     -6.56313216	     68.29953855	      1.19205183	     36.82484443	      0.73334262	     -7.49999987	     68.33754644	    -22.12763036	     -3.78974984	     69.55542140	      1.21397112	     36.03958857	      6.52585413	     -7.49999987	    -17.44195136	      0.02929676	      9.72341786	     82.93062463	    -12.00881562	     68.01531027	    129.34612428	     63.54871063	     85.46978583	      0.56484822	     70.71902432	    118.18870645	     84.25992391
